<mxfile host="app.diagrams.net" agent="Mozilla/5.0 (Windows NT 10.0; Win64; x64) AppleWebKit/537.36 (KHTML, like Gecko) Chrome/138.0.0.0 Safari/537.36" version="28.2.0">
  <diagram name="Page-1" id="bN5_SLysCn1MIJf5ADZa">
    <mxGraphModel dx="784" dy="1102" grid="1" gridSize="10" guides="1" tooltips="1" connect="1" arrows="1" fold="1" page="1" pageScale="1" pageWidth="827" pageHeight="1169" math="0" shadow="0">
      <root>
        <mxCell id="0" />
        <mxCell id="1" parent="0" />
        <mxCell id="hcWBOqaio0GLE8Ezj0yM-41" style="edgeStyle=orthogonalEdgeStyle;rounded=0;orthogonalLoop=1;jettySize=auto;html=1;endArrow=none;endFill=0;" edge="1" parent="1" source="hcWBOqaio0GLE8Ezj0yM-1" target="hcWBOqaio0GLE8Ezj0yM-39">
          <mxGeometry relative="1" as="geometry" />
        </mxCell>
        <mxCell id="hcWBOqaio0GLE8Ezj0yM-42" value="0,n" style="edgeLabel;html=1;align=center;verticalAlign=middle;resizable=0;points=[];" vertex="1" connectable="0" parent="hcWBOqaio0GLE8Ezj0yM-41">
          <mxGeometry x="-0.2653" y="-1" relative="1" as="geometry">
            <mxPoint y="-16" as="offset" />
          </mxGeometry>
        </mxCell>
        <mxCell id="hcWBOqaio0GLE8Ezj0yM-1" value="User" style="swimlane;fontStyle=0;childLayout=stackLayout;horizontal=1;startSize=30;horizontalStack=0;resizeParent=1;resizeParentMax=0;resizeLast=0;collapsible=1;marginBottom=0;whiteSpace=wrap;html=1;" vertex="1" parent="1">
          <mxGeometry x="80" y="255" width="140" height="120" as="geometry" />
        </mxCell>
        <mxCell id="hcWBOqaio0GLE8Ezj0yM-2" value="&lt;u&gt;user_id&lt;/u&gt;" style="text;strokeColor=none;fillColor=none;align=left;verticalAlign=middle;spacingLeft=4;spacingRight=4;overflow=hidden;points=[[0,0.5],[1,0.5]];portConstraint=eastwest;rotatable=0;whiteSpace=wrap;html=1;" vertex="1" parent="hcWBOqaio0GLE8Ezj0yM-1">
          <mxGeometry y="30" width="140" height="30" as="geometry" />
        </mxCell>
        <mxCell id="hcWBOqaio0GLE8Ezj0yM-3" value="user_identifiant" style="text;strokeColor=none;fillColor=none;align=left;verticalAlign=middle;spacingLeft=4;spacingRight=4;overflow=hidden;points=[[0,0.5],[1,0.5]];portConstraint=eastwest;rotatable=0;whiteSpace=wrap;html=1;" vertex="1" parent="hcWBOqaio0GLE8Ezj0yM-1">
          <mxGeometry y="60" width="140" height="30" as="geometry" />
        </mxCell>
        <mxCell id="hcWBOqaio0GLE8Ezj0yM-4" value="user_password" style="text;strokeColor=none;fillColor=none;align=left;verticalAlign=middle;spacingLeft=4;spacingRight=4;overflow=hidden;points=[[0,0.5],[1,0.5]];portConstraint=eastwest;rotatable=0;whiteSpace=wrap;html=1;" vertex="1" parent="hcWBOqaio0GLE8Ezj0yM-1">
          <mxGeometry y="90" width="140" height="30" as="geometry" />
        </mxCell>
        <mxCell id="hcWBOqaio0GLE8Ezj0yM-5" value="Produit" style="swimlane;fontStyle=0;childLayout=stackLayout;horizontal=1;startSize=30;horizontalStack=0;resizeParent=1;resizeParentMax=0;resizeLast=0;collapsible=1;marginBottom=0;whiteSpace=wrap;html=1;" vertex="1" parent="1">
          <mxGeometry x="640" y="520" width="140" height="120" as="geometry" />
        </mxCell>
        <mxCell id="hcWBOqaio0GLE8Ezj0yM-6" value="&lt;u&gt;pr_id&lt;/u&gt;" style="text;strokeColor=none;fillColor=none;align=left;verticalAlign=middle;spacingLeft=4;spacingRight=4;overflow=hidden;points=[[0,0.5],[1,0.5]];portConstraint=eastwest;rotatable=0;whiteSpace=wrap;html=1;" vertex="1" parent="hcWBOqaio0GLE8Ezj0yM-5">
          <mxGeometry y="30" width="140" height="30" as="geometry" />
        </mxCell>
        <mxCell id="hcWBOqaio0GLE8Ezj0yM-7" value="pr_nom" style="text;strokeColor=none;fillColor=none;align=left;verticalAlign=middle;spacingLeft=4;spacingRight=4;overflow=hidden;points=[[0,0.5],[1,0.5]];portConstraint=eastwest;rotatable=0;whiteSpace=wrap;html=1;" vertex="1" parent="hcWBOqaio0GLE8Ezj0yM-5">
          <mxGeometry y="60" width="140" height="30" as="geometry" />
        </mxCell>
        <mxCell id="hcWBOqaio0GLE8Ezj0yM-31" value="pr_quantite" style="text;strokeColor=none;fillColor=none;align=left;verticalAlign=middle;spacingLeft=4;spacingRight=4;overflow=hidden;points=[[0,0.5],[1,0.5]];portConstraint=eastwest;rotatable=0;whiteSpace=wrap;html=1;" vertex="1" parent="hcWBOqaio0GLE8Ezj0yM-5">
          <mxGeometry y="90" width="140" height="30" as="geometry" />
        </mxCell>
        <mxCell id="hcWBOqaio0GLE8Ezj0yM-9" value="Categorie" style="swimlane;fontStyle=0;childLayout=stackLayout;horizontal=1;startSize=30;horizontalStack=0;resizeParent=1;resizeParentMax=0;resizeLast=0;collapsible=1;marginBottom=0;whiteSpace=wrap;html=1;" vertex="1" parent="1">
          <mxGeometry x="640" y="840" width="140" height="90" as="geometry" />
        </mxCell>
        <mxCell id="hcWBOqaio0GLE8Ezj0yM-10" value="&lt;u&gt;cat_id&lt;/u&gt;" style="text;strokeColor=none;fillColor=none;align=left;verticalAlign=middle;spacingLeft=4;spacingRight=4;overflow=hidden;points=[[0,0.5],[1,0.5]];portConstraint=eastwest;rotatable=0;whiteSpace=wrap;html=1;" vertex="1" parent="hcWBOqaio0GLE8Ezj0yM-9">
          <mxGeometry y="30" width="140" height="30" as="geometry" />
        </mxCell>
        <mxCell id="hcWBOqaio0GLE8Ezj0yM-11" value="cat_nom" style="text;strokeColor=none;fillColor=none;align=left;verticalAlign=middle;spacingLeft=4;spacingRight=4;overflow=hidden;points=[[0,0.5],[1,0.5]];portConstraint=eastwest;rotatable=0;whiteSpace=wrap;html=1;" vertex="1" parent="hcWBOqaio0GLE8Ezj0yM-9">
          <mxGeometry y="60" width="140" height="30" as="geometry" />
        </mxCell>
        <mxCell id="hcWBOqaio0GLE8Ezj0yM-13" value="Role" style="swimlane;fontStyle=0;childLayout=stackLayout;horizontal=1;startSize=30;horizontalStack=0;resizeParent=1;resizeParentMax=0;resizeLast=0;collapsible=1;marginBottom=0;whiteSpace=wrap;html=1;" vertex="1" parent="1">
          <mxGeometry x="80" y="600" width="140" height="90" as="geometry" />
        </mxCell>
        <mxCell id="hcWBOqaio0GLE8Ezj0yM-14" value="&lt;u&gt;role_id&lt;/u&gt;" style="text;strokeColor=none;fillColor=none;align=left;verticalAlign=middle;spacingLeft=4;spacingRight=4;overflow=hidden;points=[[0,0.5],[1,0.5]];portConstraint=eastwest;rotatable=0;whiteSpace=wrap;html=1;" vertex="1" parent="hcWBOqaio0GLE8Ezj0yM-13">
          <mxGeometry y="30" width="140" height="30" as="geometry" />
        </mxCell>
        <mxCell id="hcWBOqaio0GLE8Ezj0yM-15" value="role_nom" style="text;strokeColor=none;fillColor=none;align=left;verticalAlign=middle;spacingLeft=4;spacingRight=4;overflow=hidden;points=[[0,0.5],[1,0.5]];portConstraint=eastwest;rotatable=0;whiteSpace=wrap;html=1;" vertex="1" parent="hcWBOqaio0GLE8Ezj0yM-13">
          <mxGeometry y="60" width="140" height="30" as="geometry" />
        </mxCell>
        <mxCell id="hcWBOqaio0GLE8Ezj0yM-38" style="edgeStyle=orthogonalEdgeStyle;rounded=0;orthogonalLoop=1;jettySize=auto;html=1;entryX=0.5;entryY=0;entryDx=0;entryDy=0;endArrow=none;endFill=0;" edge="1" parent="1" source="hcWBOqaio0GLE8Ezj0yM-17" target="hcWBOqaio0GLE8Ezj0yM-36">
          <mxGeometry relative="1" as="geometry" />
        </mxCell>
        <mxCell id="hcWBOqaio0GLE8Ezj0yM-44" value="1,1" style="edgeLabel;html=1;align=center;verticalAlign=middle;resizable=0;points=[];" vertex="1" connectable="0" parent="hcWBOqaio0GLE8Ezj0yM-38">
          <mxGeometry x="-0.5172" y="2" relative="1" as="geometry">
            <mxPoint x="-15" y="-13" as="offset" />
          </mxGeometry>
        </mxCell>
        <mxCell id="hcWBOqaio0GLE8Ezj0yM-40" style="edgeStyle=orthogonalEdgeStyle;rounded=0;orthogonalLoop=1;jettySize=auto;html=1;endArrow=none;endFill=0;" edge="1" parent="1" source="hcWBOqaio0GLE8Ezj0yM-17" target="hcWBOqaio0GLE8Ezj0yM-39">
          <mxGeometry relative="1" as="geometry" />
        </mxCell>
        <mxCell id="hcWBOqaio0GLE8Ezj0yM-43" value="1,1" style="edgeLabel;html=1;align=center;verticalAlign=middle;resizable=0;points=[];" vertex="1" connectable="0" parent="hcWBOqaio0GLE8Ezj0yM-40">
          <mxGeometry x="-0.3383" y="-3" relative="1" as="geometry">
            <mxPoint y="-12" as="offset" />
          </mxGeometry>
        </mxCell>
        <mxCell id="hcWBOqaio0GLE8Ezj0yM-17" value="Mouvement" style="swimlane;fontStyle=0;childLayout=stackLayout;horizontal=1;startSize=30;horizontalStack=0;resizeParent=1;resizeParentMax=0;resizeLast=0;collapsible=1;marginBottom=0;whiteSpace=wrap;html=1;" vertex="1" parent="1">
          <mxGeometry x="480" y="240" width="140" height="150" as="geometry" />
        </mxCell>
        <mxCell id="hcWBOqaio0GLE8Ezj0yM-18" value="&lt;u&gt;mouv_id&lt;/u&gt;" style="text;strokeColor=none;fillColor=none;align=left;verticalAlign=middle;spacingLeft=4;spacingRight=4;overflow=hidden;points=[[0,0.5],[1,0.5]];portConstraint=eastwest;rotatable=0;whiteSpace=wrap;html=1;" vertex="1" parent="hcWBOqaio0GLE8Ezj0yM-17">
          <mxGeometry y="30" width="140" height="30" as="geometry" />
        </mxCell>
        <mxCell id="hcWBOqaio0GLE8Ezj0yM-19" value="mouv_type" style="text;strokeColor=none;fillColor=none;align=left;verticalAlign=middle;spacingLeft=4;spacingRight=4;overflow=hidden;points=[[0,0.5],[1,0.5]];portConstraint=eastwest;rotatable=0;whiteSpace=wrap;html=1;" vertex="1" parent="hcWBOqaio0GLE8Ezj0yM-17">
          <mxGeometry y="60" width="140" height="30" as="geometry" />
        </mxCell>
        <mxCell id="hcWBOqaio0GLE8Ezj0yM-20" value="mouv_date" style="text;strokeColor=none;fillColor=none;align=left;verticalAlign=middle;spacingLeft=4;spacingRight=4;overflow=hidden;points=[[0,0.5],[1,0.5]];portConstraint=eastwest;rotatable=0;whiteSpace=wrap;html=1;" vertex="1" parent="hcWBOqaio0GLE8Ezj0yM-17">
          <mxGeometry y="90" width="140" height="30" as="geometry" />
        </mxCell>
        <mxCell id="hcWBOqaio0GLE8Ezj0yM-32" value="mouv_quantite" style="text;strokeColor=none;fillColor=none;align=left;verticalAlign=middle;spacingLeft=4;spacingRight=4;overflow=hidden;points=[[0,0.5],[1,0.5]];portConstraint=eastwest;rotatable=0;whiteSpace=wrap;html=1;" vertex="1" parent="hcWBOqaio0GLE8Ezj0yM-17">
          <mxGeometry y="120" width="140" height="30" as="geometry" />
        </mxCell>
        <mxCell id="hcWBOqaio0GLE8Ezj0yM-22" style="edgeStyle=orthogonalEdgeStyle;rounded=0;orthogonalLoop=1;jettySize=auto;html=1;endArrow=none;endFill=0;" edge="1" parent="1" source="hcWBOqaio0GLE8Ezj0yM-21" target="hcWBOqaio0GLE8Ezj0yM-9">
          <mxGeometry relative="1" as="geometry" />
        </mxCell>
        <mxCell id="hcWBOqaio0GLE8Ezj0yM-24" value="0,n" style="edgeLabel;html=1;align=center;verticalAlign=middle;resizable=0;points=[];" vertex="1" connectable="0" parent="hcWBOqaio0GLE8Ezj0yM-22">
          <mxGeometry x="0.4222" y="-3" relative="1" as="geometry">
            <mxPoint x="13" y="-3" as="offset" />
          </mxGeometry>
        </mxCell>
        <mxCell id="hcWBOqaio0GLE8Ezj0yM-23" style="edgeStyle=orthogonalEdgeStyle;rounded=0;orthogonalLoop=1;jettySize=auto;html=1;endArrow=none;endFill=0;" edge="1" parent="1" source="hcWBOqaio0GLE8Ezj0yM-21" target="hcWBOqaio0GLE8Ezj0yM-5">
          <mxGeometry relative="1" as="geometry" />
        </mxCell>
        <mxCell id="hcWBOqaio0GLE8Ezj0yM-25" value="1,1" style="edgeLabel;html=1;align=center;verticalAlign=middle;resizable=0;points=[];" vertex="1" connectable="0" parent="hcWBOqaio0GLE8Ezj0yM-23">
          <mxGeometry x="0.5" y="3" relative="1" as="geometry">
            <mxPoint x="13" y="5" as="offset" />
          </mxGeometry>
        </mxCell>
        <mxCell id="hcWBOqaio0GLE8Ezj0yM-21" value="Catégoriser" style="ellipse;whiteSpace=wrap;html=1;fillColor=#f8cecc;strokeColor=#b85450;" vertex="1" parent="1">
          <mxGeometry x="650" y="700" width="120" height="80" as="geometry" />
        </mxCell>
        <mxCell id="hcWBOqaio0GLE8Ezj0yM-27" style="edgeStyle=orthogonalEdgeStyle;rounded=0;orthogonalLoop=1;jettySize=auto;html=1;endArrow=none;endFill=0;" edge="1" parent="1" source="hcWBOqaio0GLE8Ezj0yM-26" target="hcWBOqaio0GLE8Ezj0yM-1">
          <mxGeometry relative="1" as="geometry" />
        </mxCell>
        <mxCell id="hcWBOqaio0GLE8Ezj0yM-29" value="1,1" style="edgeLabel;html=1;align=center;verticalAlign=middle;resizable=0;points=[];" vertex="1" connectable="0" parent="hcWBOqaio0GLE8Ezj0yM-27">
          <mxGeometry x="0.4333" y="-2" relative="1" as="geometry">
            <mxPoint x="8" as="offset" />
          </mxGeometry>
        </mxCell>
        <mxCell id="hcWBOqaio0GLE8Ezj0yM-28" style="edgeStyle=orthogonalEdgeStyle;rounded=0;orthogonalLoop=1;jettySize=auto;html=1;endArrow=none;endFill=0;" edge="1" parent="1" source="hcWBOqaio0GLE8Ezj0yM-26" target="hcWBOqaio0GLE8Ezj0yM-13">
          <mxGeometry relative="1" as="geometry" />
        </mxCell>
        <mxCell id="hcWBOqaio0GLE8Ezj0yM-30" value="0,n" style="edgeLabel;html=1;align=center;verticalAlign=middle;resizable=0;points=[];" vertex="1" connectable="0" parent="hcWBOqaio0GLE8Ezj0yM-28">
          <mxGeometry x="0.48" y="3" relative="1" as="geometry">
            <mxPoint x="7" y="11" as="offset" />
          </mxGeometry>
        </mxCell>
        <mxCell id="hcWBOqaio0GLE8Ezj0yM-26" value="Avoir" style="ellipse;whiteSpace=wrap;html=1;fillColor=#f8cecc;strokeColor=#b85450;" vertex="1" parent="1">
          <mxGeometry x="90" y="420" width="120" height="80" as="geometry" />
        </mxCell>
        <mxCell id="hcWBOqaio0GLE8Ezj0yM-37" style="edgeStyle=orthogonalEdgeStyle;rounded=0;orthogonalLoop=1;jettySize=auto;html=1;endArrow=none;endFill=0;" edge="1" parent="1" source="hcWBOqaio0GLE8Ezj0yM-36" target="hcWBOqaio0GLE8Ezj0yM-5">
          <mxGeometry relative="1" as="geometry" />
        </mxCell>
        <mxCell id="hcWBOqaio0GLE8Ezj0yM-45" value="1,n" style="edgeLabel;html=1;align=center;verticalAlign=middle;resizable=0;points=[];" vertex="1" connectable="0" parent="hcWBOqaio0GLE8Ezj0yM-37">
          <mxGeometry x="0.1714" relative="1" as="geometry">
            <mxPoint x="20" y="9" as="offset" />
          </mxGeometry>
        </mxCell>
        <mxCell id="hcWBOqaio0GLE8Ezj0yM-36" value="Concerne" style="ellipse;whiteSpace=wrap;html=1;fillColor=#f8cecc;strokeColor=#b85450;" vertex="1" parent="1">
          <mxGeometry x="650" y="370" width="120" height="80" as="geometry" />
        </mxCell>
        <mxCell id="hcWBOqaio0GLE8Ezj0yM-39" value="Effectuer" style="ellipse;whiteSpace=wrap;html=1;fillColor=#f8cecc;strokeColor=#b85450;" vertex="1" parent="1">
          <mxGeometry x="293.5" y="275" width="120" height="80" as="geometry" />
        </mxCell>
        <mxCell id="hcWBOqaio0GLE8Ezj0yM-46" value="&lt;font style=&quot;font-size: 18px;&quot;&gt;MLD:&lt;/font&gt;&lt;div&gt;&lt;font style=&quot;font-size: 16px;&quot;&gt;User(&lt;u&gt;user_id&lt;/u&gt;, user_identifiant, user_password, #role_id)&lt;/font&gt;&lt;/div&gt;&lt;div&gt;&lt;font style=&quot;font-size: 16px;&quot;&gt;Role(&lt;u&gt;role_id&lt;/u&gt;, role_nom)&lt;/font&gt;&lt;/div&gt;&lt;div&gt;&lt;font style=&quot;font-size: 16px;&quot;&gt;Mouvement(&lt;u&gt;mouv_id&lt;/u&gt;, mouv_type, mouv_date, mouv_quantite, #user_id, #pr_id)&lt;/font&gt;&lt;/div&gt;&lt;div&gt;&lt;font style=&quot;font-size: 16px;&quot;&gt;Produit(&lt;u&gt;pr_id&lt;/u&gt;, pr_nom, pr_quantite, #cat_id)&lt;/font&gt;&lt;/div&gt;&lt;div&gt;&lt;font style=&quot;font-size: 16px;&quot;&gt;Categorie(&lt;u style=&quot;&quot;&gt;cat_id&lt;/u&gt;, cat_nom)&lt;/font&gt;&lt;/div&gt;" style="text;html=1;align=left;verticalAlign=middle;whiteSpace=wrap;rounded=0;" vertex="1" parent="1">
          <mxGeometry x="30" y="770" width="580" height="170" as="geometry" />
        </mxCell>
      </root>
    </mxGraphModel>
  </diagram>
</mxfile>
